<svg width="450" height="210">
<defs>
    <style type="text/css"><![CDATA[
.axis path,
.axis line {
  fill: none;
  stroke: #000;
  shape-rendering: crispEdges;
}

.line {
  fill: none;
  stroke: steelblue;
  stroke-width: 1.5px;
}
    ]]></style>
  </defs>

<g transform="translate(60,20)"><path class="dot" transform="translate(9.405169180442146, 123.15901124901416)" d="M0,-5.0971327345413675L2.9428309563827115,0 0,5.0971327345413675 -2.9428309563827115,0Z" fill="orange" stroke="orange"></path><path class="dot" transform="translate(40.648464918121675, 133.00598880842898)" d="M0,-5.0971327345413675L2.9428309563827115,0 0,5.0971327345413675 -2.9428309563827115,0Z" fill="orange" stroke="orange"></path><path class="dot" transform="translate(71.89176065580119, 133.9937669889974)" d="M0,-5.0971327345413675L2.9428309563827115,0 0,5.0971327345413675 -2.9428309563827115,0Z" fill="orange" stroke="orange"></path><path class="dot" transform="translate(103.1350563934807, 133.74729479551354)" d="M0,-5.0971327345413675L2.9428309563827115,0 0,5.0971327345413675 -2.9428309563827115,0Z" fill="orange" stroke="orange"></path><path class="dot" transform="translate(134.37835213116023, 127.98177535031809)" d="M0,-5.0971327345413675L2.9428309563827115,0 0,5.0971327345413675 -2.9428309563827115,0Z" fill="orange" stroke="orange"></path><path class="dot" transform="translate(165.62164786883977, 126.29356583796682)" d="M0,-5.0971327345413675L2.9428309563827115,0 0,5.0971327345413675 -2.9428309563827115,0Z" fill="orange" stroke="orange"></path><path class="dot" transform="translate(196.86494360651926, 112.09204486249143)" d="M0,-5.0971327345413675L2.9428309563827115,0 0,5.0971327345413675 -2.9428309563827115,0Z" fill="orange" stroke="orange"></path><path class="dot" transform="translate(228.1082393441988, 69.82747756089172)" d="M0,-5.0971327345413675L2.9428309563827115,0 0,5.0971327345413675 -2.9428309563827115,0Z" fill="orange" stroke="orange"></path><path class="dot" transform="translate(259.35153508187835, 51.21986978266057)" d="M0,-5.0971327345413675L2.9428309563827115,0 0,5.0971327345413675 -2.9428309563827115,0Z" fill="orange" stroke="orange"></path><path class="dot" transform="translate(290.5948308195578, 48.42039087684546)" d="M0,-5.0971327345413675L2.9428309563827115,0 0,5.0971327345413675 -2.9428309563827115,0Z" fill="orange" stroke="orange"></path><path class="dot" transform="translate(9.405169180442146, 112.65869067730429)" d="M0,-5.0971327345413675L2.9428309563827115,0 0,5.0971327345413675 -2.9428309563827115,0Z" fill="red" stroke="red"></path><path class="dot" transform="translate(40.648464918121675, 124.55543421506526)" d="M0,-5.0971327345413675L2.9428309563827115,0 0,5.0971327345413675 -2.9428309563827115,0Z" fill="red" stroke="red"></path><path class="dot" transform="translate(71.89176065580119, 125.15021828050953)" d="M0,-5.0971327345413675L2.9428309563827115,0 0,5.0971327345413675 -2.9428309563827115,0Z" fill="red" stroke="red"></path><path class="dot" transform="translate(103.1350563934807, 125.9736625538737)" d="M0,-5.0971327345413675L2.9428309563827115,0 0,5.0971327345413675 -2.9428309563827115,0Z" fill="red" stroke="red"></path><path class="dot" transform="translate(134.37835213116023, 113.68611186766294)" d="M0,-5.0971327345413675L2.9428309563827115,0 0,5.0971327345413675 -2.9428309563827115,0Z" fill="red" stroke="red"></path><path class="dot" transform="translate(165.62164786883977, 85.32595467548852)" d="M0,-5.0971327345413675L2.9428309563827115,0 0,5.0971327345413675 -2.9428309563827115,0Z" fill="red" stroke="red"></path><path class="dot" transform="translate(196.86494360651926, 89.24144935372782)" d="M0,-5.0971327345413675L2.9428309563827115,0 0,5.0971327345413675 -2.9428309563827115,0Z" fill="red" stroke="red"></path><path class="dot" transform="translate(228.1082393441988, 89.266211004177)" d="M0,-5.0971327345413675L2.9428309563827115,0 0,5.0971327345413675 -2.9428309563827115,0Z" fill="red" stroke="red"></path><path class="dot" transform="translate(259.35153508187835, 88.68592833565467)" d="M0,-5.0971327345413675L2.9428309563827115,0 0,5.0971327345413675 -2.9428309563827115,0Z" fill="red" stroke="red"></path><path class="dot" transform="translate(290.5948308195578, 87.84588628780192)" d="M0,-5.0971327345413675L2.9428309563827115,0 0,5.0971327345413675 -2.9428309563827115,0Z" fill="red" stroke="red"></path><path class="dot" transform="translate(9.405169180442146, 95.21440919008153)" d="M-2.7386127875258306,-2.7386127875258306L2.7386127875258306,-2.7386127875258306 2.7386127875258306,2.7386127875258306 -2.7386127875258306,2.7386127875258306Z" fill="brown" stroke="brown"></path><path class="dot" transform="translate(40.648464918121675, 95.21440919008153)" d="M-2.7386127875258306,-2.7386127875258306L2.7386127875258306,-2.7386127875258306 2.7386127875258306,2.7386127875258306 -2.7386127875258306,2.7386127875258306Z" fill="brown" stroke="brown"></path><path class="dot" transform="translate(71.89176065580119, 95.21440919008153)" d="M-2.7386127875258306,-2.7386127875258306L2.7386127875258306,-2.7386127875258306 2.7386127875258306,2.7386127875258306 -2.7386127875258306,2.7386127875258306Z" fill="brown" stroke="brown"></path><path class="dot" transform="translate(103.1350563934807, 95.21440919008153)" d="M-2.7386127875258306,-2.7386127875258306L2.7386127875258306,-2.7386127875258306 2.7386127875258306,2.7386127875258306 -2.7386127875258306,2.7386127875258306Z" fill="brown" stroke="brown"></path><path class="dot" transform="translate(134.37835213116023, 95.21440919008153)" d="M-2.7386127875258306,-2.7386127875258306L2.7386127875258306,-2.7386127875258306 2.7386127875258306,2.7386127875258306 -2.7386127875258306,2.7386127875258306Z" fill="brown" stroke="brown"></path><path class="dot" transform="translate(165.62164786883977, 95.21440919008153)" d="M-2.7386127875258306,-2.7386127875258306L2.7386127875258306,-2.7386127875258306 2.7386127875258306,2.7386127875258306 -2.7386127875258306,2.7386127875258306Z" fill="brown" stroke="brown"></path><path class="dot" transform="translate(196.86494360651926, 95.21440919008153)" d="M-2.7386127875258306,-2.7386127875258306L2.7386127875258306,-2.7386127875258306 2.7386127875258306,2.7386127875258306 -2.7386127875258306,2.7386127875258306Z" fill="brown" stroke="brown"></path><path class="dot" transform="translate(228.1082393441988, 95.21440919008153)" d="M-2.7386127875258306,-2.7386127875258306L2.7386127875258306,-2.7386127875258306 2.7386127875258306,2.7386127875258306 -2.7386127875258306,2.7386127875258306Z" fill="brown" stroke="brown"></path><path class="dot" transform="translate(259.35153508187835, 95.21440919008153)" d="M-2.7386127875258306,-2.7386127875258306L2.7386127875258306,-2.7386127875258306 2.7386127875258306,2.7386127875258306 -2.7386127875258306,2.7386127875258306Z" fill="brown" stroke="brown"></path><path class="dot" transform="translate(290.5948308195578, 95.21440919008153)" d="M-2.7386127875258306,-2.7386127875258306L2.7386127875258306,-2.7386127875258306 2.7386127875258306,2.7386127875258306 -2.7386127875258306,2.7386127875258306Z" fill="brown" stroke="brown"></path><g><text x="120" y="40" fill="red" style="font-size:14px" alignment-baseline="middle">COMB800</text><path d="M100 40 L119 40" stroke="red"></path><path transform="translate(110, 40)" fill="red" d="M0,-5.0971327345413675L2.9428309563827115,0 0,5.0971327345413675 -2.9428309563827115,0Z"></path><text x="120" y="60" fill="orange" style="font-size:14px" alignment-baseline="middle">COMB</text><path d="M100 60 L119 60" stroke="orange"></path><path transform="translate(110, 60)" fill="orange" d="M0,-5.0971327345413675L2.9428309563827115,0 0,5.0971327345413675 -2.9428309563827115,0Z"></path><text x="120" y="80" fill="brown" style="font-size:14px" alignment-baseline="middle">CT64</text><path d="M100 80 L119 80" stroke="brown"></path><path transform="translate(110, 80)" fill="brown" d="M-2.7386127875258306,-2.7386127875258306L2.7386127875258306,-2.7386127875258306 2.7386127875258306,2.7386127875258306 -2.7386127875258306,2.7386127875258306Z"></path></g><g class="x axis" transform="translate(0,145)" style="shape-rendering: crispedges; font-size: 14px;"><g class="tick" transform="translate(9.405169180442146,0)" style="opacity: 1;"><line y2="-5" x2="0"></line><text y="7" x="0" dy=".71em" style="text-anchor: middle;">1</text></g><g class="tick" transform="translate(40.648464918121675,0)" style="opacity: 1;"><line y2="-5" x2="0"></line><text y="7" x="0" dy=".71em" style="text-anchor: middle;">10</text></g><g class="tick" transform="translate(71.89176065580119,0)" style="opacity: 1;"><line y2="-5" x2="0"></line><text y="7" x="0" dy=".71em" style="text-anchor: middle;">10<tspan dy="-.5em" style="shape-rendering: crispedges; font-size: 11px;">2</tspan></text></g><g class="tick" transform="translate(103.1350563934807,0)" style="opacity: 1;"><line y2="-5" x2="0"></line><text y="7" x="0" dy=".71em" style="text-anchor: middle;">10<tspan dy="-.5em" style="shape-rendering: crispedges; font-size: 11px;">3</tspan></text></g><g class="tick" transform="translate(134.37835213116023,0)" style="opacity: 1;"><line y2="-5" x2="0"></line><text y="7" x="0" dy=".71em" style="text-anchor: middle;">10<tspan dy="-.5em" style="shape-rendering: crispedges; font-size: 11px;">4</tspan></text></g><g class="tick" transform="translate(165.62164786883977,0)" style="opacity: 1;"><line y2="-5" x2="0"></line><text y="7" x="0" dy=".71em" style="text-anchor: middle;">10<tspan dy="-.5em" style="shape-rendering: crispedges; font-size: 11px;">5</tspan></text></g><g class="tick" transform="translate(196.86494360651926,0)" style="opacity: 1;"><line y2="-5" x2="0"></line><text y="7" x="0" dy=".71em" style="text-anchor: middle;">10<tspan dy="-.5em" style="shape-rendering: crispedges; font-size: 11px;">6</tspan></text></g><g class="tick" transform="translate(228.1082393441988,0)" style="opacity: 1;"><line y2="-5" x2="0"></line><text y="7" x="0" dy=".71em" style="text-anchor: middle;">10<tspan dy="-.5em" style="shape-rendering: crispedges; font-size: 11px;">7</tspan></text></g><g class="tick" transform="translate(259.35153508187835,0)" style="opacity: 1;"><line y2="-5" x2="0"></line><text y="7" x="0" dy=".71em" style="text-anchor: middle;">10<tspan dy="-.5em" style="shape-rendering: crispedges; font-size: 11px;">8</tspan></text></g><g class="tick" transform="translate(290.5948308195578,0)" style="opacity: 1;"><line y2="-5" x2="0"></line><text y="7" x="0" dy=".71em" style="text-anchor: middle;">10<tspan dy="-.5em" style="shape-rendering: crispedges; font-size: 11px;">9</tspan></text></g><path class="domain" d="M0,-5V0H300V-5"></path><text transform="translate(150, 0)" y="40" style="text-anchor: middle; font-size: 14px;">Query Sequence</text></g><g class="x axis top" transform="translate(0,0)" style="shape-rendering: crispedges; font-size: 14px;"><g class="tick" transform="translate(9.405169180442146,0)" style="opacity: 1;"><line y2="5" x2="0"></line><text y="-3" x="0" dy="0em" style="text-anchor: middle;"></text></g><g class="tick" transform="translate(40.648464918121675,0)" style="opacity: 1;"><line y2="5" x2="0"></line><text y="-3" x="0" dy="0em" style="text-anchor: middle;"></text></g><g class="tick" transform="translate(71.89176065580119,0)" style="opacity: 1;"><line y2="5" x2="0"></line><text y="-3" x="0" dy="0em" style="text-anchor: middle;"></text></g><g class="tick" transform="translate(103.1350563934807,0)" style="opacity: 1;"><line y2="5" x2="0"></line><text y="-3" x="0" dy="0em" style="text-anchor: middle;"></text></g><g class="tick" transform="translate(134.37835213116023,0)" style="opacity: 1;"><line y2="5" x2="0"></line><text y="-3" x="0" dy="0em" style="text-anchor: middle;"></text></g><g class="tick" transform="translate(165.62164786883977,0)" style="opacity: 1;"><line y2="5" x2="0"></line><text y="-3" x="0" dy="0em" style="text-anchor: middle;"></text></g><g class="tick" transform="translate(196.86494360651926,0)" style="opacity: 1;"><line y2="5" x2="0"></line><text y="-3" x="0" dy="0em" style="text-anchor: middle;"></text></g><g class="tick" transform="translate(228.1082393441988,0)" style="opacity: 1;"><line y2="5" x2="0"></line><text y="-3" x="0" dy="0em" style="text-anchor: middle;"></text></g><g class="tick" transform="translate(259.35153508187835,0)" style="opacity: 1;"><line y2="5" x2="0"></line><text y="-3" x="0" dy="0em" style="text-anchor: middle;"></text></g><g class="tick" transform="translate(290.5948308195578,0)" style="opacity: 1;"><line y2="5" x2="0"></line><text y="-3" x="0" dy="0em" style="text-anchor: middle;"></text></g><path class="domain" d="M0,5V0H300V5"></path></g><g class="y axis" style="shape-rendering: crispedges; font-size: 14px;"><g class="tick" transform="translate(0,145)" style="opacity: 1;"><line x2="5" y2="0"></line><text x="-5" y="0" dy=".32em" style="text-anchor: end;"></text></g><g class="tick" transform="translate(0,133.1040320088855)" style="opacity: 1;"><line x2="5" y2="0"></line><text x="-5" y="0" dy=".32em" style="text-anchor: end;"></text></g><g class="tick" transform="translate(0,123.87680237572029)" style="opacity: 1;"><line x2="5" y2="0"></line><text x="-5" y="0" dy=".32em" style="text-anchor: end;"></text></g><g class="tick" transform="translate(0,116.33760681436122)" style="opacity: 1;"><line x2="5" y2="0"></line><text x="-5" y="0" dy=".32em" style="text-anchor: end;"></text></g><g class="tick" transform="translate(0,109.96330779250971)" style="opacity: 1;"><line x2="5" y2="0"></line><text x="-5" y="0" dy=".32em" style="text-anchor: end;"></text></g><g class="tick" transform="translate(0,104.44163882324673)" style="opacity: 1;"><line x2="5" y2="0"></line><text x="-5" y="0" dy=".32em" style="text-anchor: end;"></text></g><g class="tick" transform="translate(0,99.57118161983695)" style="opacity: 1;"><line x2="5" y2="0"></line><text x="-5" y="0" dy=".32em" style="text-anchor: end;"></text></g><g class="tick" transform="translate(0,95.21440919008153)" style="opacity: 1;"><line x2="5" y2="0"></line><text x="-5" y="0" dy=".32em" style="text-anchor: end;">1</text></g><g class="tick" transform="translate(0,66.55201600444275)" style="opacity: 1;"><line x2="5" y2="0"></line><text x="-5" y="0" dy=".32em" style="text-anchor: end;"></text></g><g class="tick" transform="translate(0,49.785590809918475)" style="opacity: 1;"><line x2="5" y2="0"></line><text x="-5" y="0" dy=".32em" style="text-anchor: end;"></text></g><g class="tick" transform="translate(0,37.889622818803986)" style="opacity: 1;"><line x2="5" y2="0"></line><text x="-5" y="0" dy=".32em" style="text-anchor: end;"></text></g><g class="tick" transform="translate(0,28.662393185638777)" style="opacity: 1;"><line x2="5" y2="0"></line><text x="-5" y="0" dy=".32em" style="text-anchor: end;"></text></g><g class="tick" transform="translate(0,21.123197624279697)" style="opacity: 1;"><line x2="5" y2="0"></line><text x="-5" y="0" dy=".32em" style="text-anchor: end;"></text></g><g class="tick" transform="translate(0,14.748898602428199)" style="opacity: 1;"><line x2="5" y2="0"></line><text x="-5" y="0" dy=".32em" style="text-anchor: end;"></text></g><g class="tick" transform="translate(0,9.227229633165223)" style="opacity: 1;"><line x2="5" y2="0"></line><text x="-5" y="0" dy=".32em" style="text-anchor: end;"></text></g><g class="tick" transform="translate(0,4.356772429755409)" style="opacity: 1;"><line x2="5" y2="0"></line><text x="-5" y="0" dy=".32em" style="text-anchor: end;"></text></g><g class="tick" transform="translate(0,0)" style="opacity: 1;"><line x2="5" y2="0"></line><text x="-5" y="0" dy=".32em" style="text-anchor: end;">10</text></g><path class="domain" d="M5,0H0V145H5"></path><text transform="rotate(-90) translate(-72.5, 0)" y="-30" style="text-anchor: middle; font-size: 14px;">LFHV: Ratio to CTree</text></g><g class="y axis right" transform="translate(300,0)" style="shape-rendering: crispedges; font-size: 14px;"><g class="tick" transform="translate(0,145)" style="opacity: 1;"><line x2="-5" y2="0"></line><text x="3" y="0" dy=".32em" style="text-anchor: start;"></text></g><g class="tick" transform="translate(0,133.1040320088855)" style="opacity: 1;"><line x2="-5" y2="0"></line><text x="3" y="0" dy=".32em" style="text-anchor: start;"></text></g><g class="tick" transform="translate(0,123.87680237572029)" style="opacity: 1;"><line x2="-5" y2="0"></line><text x="3" y="0" dy=".32em" style="text-anchor: start;"></text></g><g class="tick" transform="translate(0,116.33760681436122)" style="opacity: 1;"><line x2="-5" y2="0"></line><text x="3" y="0" dy=".32em" style="text-anchor: start;"></text></g><g class="tick" transform="translate(0,109.96330779250971)" style="opacity: 1;"><line x2="-5" y2="0"></line><text x="3" y="0" dy=".32em" style="text-anchor: start;"></text></g><g class="tick" transform="translate(0,104.44163882324673)" style="opacity: 1;"><line x2="-5" y2="0"></line><text x="3" y="0" dy=".32em" style="text-anchor: start;"></text></g><g class="tick" transform="translate(0,99.57118161983695)" style="opacity: 1;"><line x2="-5" y2="0"></line><text x="3" y="0" dy=".32em" style="text-anchor: start;"></text></g><g class="tick" transform="translate(0,95.21440919008153)" style="opacity: 1;"><line x2="-5" y2="0"></line><text x="3" y="0" dy=".32em" style="text-anchor: start;"></text></g><g class="tick" transform="translate(0,66.55201600444275)" style="opacity: 1;"><line x2="-5" y2="0"></line><text x="3" y="0" dy=".32em" style="text-anchor: start;"></text></g><g class="tick" transform="translate(0,49.785590809918475)" style="opacity: 1;"><line x2="-5" y2="0"></line><text x="3" y="0" dy=".32em" style="text-anchor: start;"></text></g><g class="tick" transform="translate(0,37.889622818803986)" style="opacity: 1;"><line x2="-5" y2="0"></line><text x="3" y="0" dy=".32em" style="text-anchor: start;"></text></g><g class="tick" transform="translate(0,28.662393185638777)" style="opacity: 1;"><line x2="-5" y2="0"></line><text x="3" y="0" dy=".32em" style="text-anchor: start;"></text></g><g class="tick" transform="translate(0,21.123197624279697)" style="opacity: 1;"><line x2="-5" y2="0"></line><text x="3" y="0" dy=".32em" style="text-anchor: start;"></text></g><g class="tick" transform="translate(0,14.748898602428199)" style="opacity: 1;"><line x2="-5" y2="0"></line><text x="3" y="0" dy=".32em" style="text-anchor: start;"></text></g><g class="tick" transform="translate(0,9.227229633165223)" style="opacity: 1;"><line x2="-5" y2="0"></line><text x="3" y="0" dy=".32em" style="text-anchor: start;"></text></g><g class="tick" transform="translate(0,4.356772429755409)" style="opacity: 1;"><line x2="-5" y2="0"></line><text x="3" y="0" dy=".32em" style="text-anchor: start;"></text></g><g class="tick" transform="translate(0,0)" style="opacity: 1;"><line x2="-5" y2="0"></line><text x="3" y="0" dy=".32em" style="text-anchor: start;"></text></g><path class="domain" d="M-5,0H0V145H-5"></path></g><g class="lines"><path class="line" d="M9.405169180442146,123.15901124901416L40.648464918121675,133.00598880842898L71.89176065580119,133.9937669889974L103.1350563934807,133.74729479551354L134.37835213116023,127.98177535031809L165.62164786883977,126.29356583796682L196.86494360651926,112.09204486249143L228.1082393441988,69.82747756089172L259.35153508187835,51.21986978266057L290.5948308195578,48.42039087684546" style="stroke: #ffa500;"></path></g><g class="lines"><path class="line" d="M9.405169180442146,112.65869067730429L40.648464918121675,124.55543421506526L71.89176065580119,125.15021828050953L103.1350563934807,125.9736625538737L134.37835213116023,113.68611186766294L165.62164786883977,85.32595467548852L196.86494360651926,89.24144935372782L228.1082393441988,89.266211004177L259.35153508187835,88.68592833565467L290.5948308195578,87.84588628780192" style="stroke: #ff0000;"></path></g><g class="lines"><path class="line" d="M9.405169180442146,95.21440919008153L40.648464918121675,95.21440919008153L71.89176065580119,95.21440919008153L103.1350563934807,95.21440919008153L134.37835213116023,95.21440919008153L165.62164786883977,95.21440919008153L196.86494360651926,95.21440919008153L228.1082393441988,95.21440919008153L259.35153508187835,95.21440919008153L290.5948308195578,95.21440919008153" style="stroke: #a52a2a;"></path></g></g></svg>
