<svg>
<defs>
    <style type="text/css"><![CDATA[
.axis path,
.axis line {
  fill: none;
  stroke: #000;
  shape-rendering: crispEdges;
}

.line {
  fill: none;
  stroke: steelblue;
  stroke-width: 1.5px;
}
    ]]></style>
  </defs>

<g transform="translate(80,20)"><g class="x axis" transform="translate(0,150)" style="shape-rendering: crispedges; font-size: 14px;"><g class="tick" transform="translate(9.385917342837521,0)" style="opacity: 1;"><line y2="6" x2="0"></line><text y="9" x="0" dy=".71em" style="text-anchor: middle;">10⁰</text></g><g class="tick" transform="translate(40.565259860300024,0)" style="opacity: 1;"><line y2="6" x2="0"></line><text y="9" x="0" dy=".71em" style="text-anchor: middle;">10¹</text></g><g class="tick" transform="translate(71.74460237776253,0)" style="opacity: 1;"><line y2="6" x2="0"></line><text y="9" x="0" dy=".71em" style="text-anchor: middle;">10²</text></g><g class="tick" transform="translate(102.92394489522502,0)" style="opacity: 1;"><line y2="6" x2="0"></line><text y="9" x="0" dy=".71em" style="text-anchor: middle;">10³</text></g><g class="tick" transform="translate(134.10328741268754,0)" style="opacity: 1;"><line y2="6" x2="0"></line><text y="9" x="0" dy=".71em" style="text-anchor: middle;">10⁴</text></g><g class="tick" transform="translate(165.28262993015005,0)" style="opacity: 1;"><line y2="6" x2="0"></line><text y="9" x="0" dy=".71em" style="text-anchor: middle;">10⁵</text></g><g class="tick" transform="translate(196.46197244761254,0)" style="opacity: 1;"><line y2="6" x2="0"></line><text y="9" x="0" dy=".71em" style="text-anchor: middle;">10⁶</text></g><g class="tick" transform="translate(227.64131496507508,0)" style="opacity: 1;"><line y2="6" x2="0"></line><text y="9" x="0" dy=".71em" style="text-anchor: middle;">10⁷</text></g><g class="tick" transform="translate(258.82065748253757,0)" style="opacity: 1;"><line y2="6" x2="0"></line><text y="9" x="0" dy=".71em" style="text-anchor: middle;">10⁸</text></g><g class="tick" transform="translate(290,0)" style="opacity: 1;"><line y2="6" x2="0"></line><text y="9" x="0" dy=".71em" style="text-anchor: middle;">10⁹</text></g><path class="domain" d="M0,6V0H290V6"></path><text transform="translate(145, 0)" y="40" style="text-anchor: middle; font-size: 14px;">Query Sequence</text></g><g class="y axis" style="shape-rendering: crispedges; font-size: 14px;"><g class="tick" transform="translate(0,136.32108783958063)" style="opacity: 1;"><line x2="-6" y2="0"></line><text x="-9" y="0" dy=".32em" style="text-anchor: end;">10⁰</text></g><g class="tick" transform="translate(0,90.88072522638706)" style="opacity: 1;"><line x2="-6" y2="0"></line><text x="-9" y="0" dy=".32em" style="text-anchor: end;">10¹</text></g><g class="tick" transform="translate(0,45.440362613193514)" style="opacity: 1;"><line x2="-6" y2="0"></line><text x="-9" y="0" dy=".32em" style="text-anchor: end;">10²</text></g><g class="tick" transform="translate(0,0)" style="opacity: 1;"><line x2="-6" y2="0"></line><text x="-9" y="0" dy=".32em" style="text-anchor: end;">10³</text></g><path class="domain" d="M-6,0H0V150H-6"></path><text transform="rotate(-90) translate(-75, 0)" y="-40" style="text-anchor: middle; font-size: 14px;">Cumulative Runtime</text></g><g class="lines"><path class="line" d="M9.385917342837521,91.51438473809722L40.565259860300024,91.51436028398298L71.74460237776253,91.51414834959542L102.92394489522502,91.51246518229846L134.10328741268754,91.49942448284035L165.28262993015005,91.3745148778978L196.46197244761254,90.16839961035176L227.64131496507508,80.97849072791479L258.82065748253757,50.33626188133046" style="stroke: #0000ff;"></path><text transform="translate(258.82065748253757,50.33626188133046)" x="3" y="5" style="font-size: 14px;">Sort</text></g><g class="lines"><path class="line" d="M9.385917342837521,145.34596756328642L40.565259860300024,126.2247856724198L71.74460237776253,114.56238656521518L102.92394489522502,106.59580368955882L134.10328741268754,100.96542526322578L165.28262993015005,96.26330935325481L196.46197244761254,89.75346934520755L227.64131496507508,69.44278690131378L258.82065748253757,28.30717551813764" style="stroke: #ff0000;"></path><text transform="translate(258.82065748253757,28.30717551813764)" x="3" y="5" style="font-size: 14px;">Crack</text></g></g></svg>