<svg width="450" height="200">
<defs>
    <style type="text/css"><![CDATA[
.axis path,
.axis line {
  fill: none;
  stroke: #000;
  shape-rendering: crispEdges;
}

.line {
  fill: none;
  stroke: steelblue;
  stroke-width: 1.5px;
}
    ]]></style>
  </defs>
<g transform="translate(80,20)"><path class="dot" transform="translate(9.091663541094075, 126.57323447952322)" d="M0,-5.0971327345413675L2.9428309563827115,0 0,5.0971327345413675 -2.9428309563827115,0Z" fill="orange" stroke="orange"></path><path class="dot" transform="translate(39.29351608751762, 137.66914783525215)" d="M0,-5.0971327345413675L2.9428309563827115,0 0,5.0971327345413675 -2.9428309563827115,0Z" fill="orange" stroke="orange"></path><path class="dot" transform="translate(69.49536863394115, 140.2106196062129)" d="M0,-5.0971327345413675L2.9428309563827115,0 0,5.0971327345413675 -2.9428309563827115,0Z" fill="orange" stroke="orange"></path><path class="dot" transform="translate(99.69722118036468, 140.28257754327004)" d="M0,-5.0971327345413675L2.9428309563827115,0 0,5.0971327345413675 -2.9428309563827115,0Z" fill="orange" stroke="orange"></path><path class="dot" transform="translate(129.89907372678823, 140.05484048006684)" d="M0,-5.0971327345413675L2.9428309563827115,0 0,5.0971327345413675 -2.9428309563827115,0Z" fill="orange" stroke="orange"></path><path class="dot" transform="translate(160.10092627321177, 140.3264892751141)" d="M0,-5.0971327345413675L2.9428309563827115,0 0,5.0971327345413675 -2.9428309563827115,0Z" fill="orange" stroke="orange"></path><path class="dot" transform="translate(190.30277881963528, 136.59353171196972)" d="M0,-5.0971327345413675L2.9428309563827115,0 0,5.0971327345413675 -2.9428309563827115,0Z" fill="orange" stroke="orange"></path><path class="dot" transform="translate(220.50463136605885, 111.11550548332049)" d="M0,-5.0971327345413675L2.9428309563827115,0 0,5.0971327345413675 -2.9428309563827115,0Z" fill="orange" stroke="orange"></path><path class="dot" transform="translate(250.70648391248238, 88.47997634731067)" d="M0,-5.0971327345413675L2.9428309563827115,0 0,5.0971327345413675 -2.9428309563827115,0Z" fill="orange" stroke="orange"></path><path class="dot" transform="translate(280.90833645890586, 88.47997634731067)" d="M0,-5.0971327345413675L2.9428309563827115,0 0,5.0971327345413675 -2.9428309563827115,0Z" fill="orange" stroke="orange"></path><path class="dot" transform="translate(9.091663541094075, 139.45705152976439)" d="M0,3.0901936161855166A3.0901936161855166,3.0901936161855166 0 1,1 0,-3.0901936161855166A3.0901936161855166,3.0901936161855166 0 1,1 0,3.0901936161855166Z" fill="red" stroke="red"></path><path class="dot" transform="translate(39.29351608751762, 138.2085216276247)" d="M0,3.0901936161855166A3.0901936161855166,3.0901936161855166 0 1,1 0,-3.0901936161855166A3.0901936161855166,3.0901936161855166 0 1,1 0,3.0901936161855166Z" fill="red" stroke="red"></path><path class="dot" transform="translate(69.49536863394115, 136.32471911054782)" d="M0,3.0901936161855166A3.0901936161855166,3.0901936161855166 0 1,1 0,-3.0901936161855166A3.0901936161855166,3.0901936161855166 0 1,1 0,3.0901936161855166Z" fill="red" stroke="red"></path><path class="dot" transform="translate(99.69722118036468, 135.00440188855728)" d="M0,3.0901936161855166A3.0901936161855166,3.0901936161855166 0 1,1 0,-3.0901936161855166A3.0901936161855166,3.0901936161855166 0 1,1 0,3.0901936161855166Z" fill="red" stroke="red"></path><path class="dot" transform="translate(129.89907372678823, 136.86737405685756)" d="M0,3.0901936161855166A3.0901936161855166,3.0901936161855166 0 1,1 0,-3.0901936161855166A3.0901936161855166,3.0901936161855166 0 1,1 0,3.0901936161855166Z" fill="red" stroke="red"></path><path class="dot" transform="translate(160.10092627321177, 138.1892418241554)" d="M0,3.0901936161855166A3.0901936161855166,3.0901936161855166 0 1,1 0,-3.0901936161855166A3.0901936161855166,3.0901936161855166 0 1,1 0,3.0901936161855166Z" fill="red" stroke="red"></path><path class="dot" transform="translate(190.30277881963528, 133.85661406876767)" d="M0,3.0901936161855166A3.0901936161855166,3.0901936161855166 0 1,1 0,-3.0901936161855166A3.0901936161855166,3.0901936161855166 0 1,1 0,3.0901936161855166Z" fill="red" stroke="red"></path><path class="dot" transform="translate(220.50463136605885, 91.35179412660348)" d="M0,3.0901936161855166A3.0901936161855166,3.0901936161855166 0 1,1 0,-3.0901936161855166A3.0901936161855166,3.0901936161855166 0 1,1 0,3.0901936161855166Z" fill="red" stroke="red"></path><path class="dot" transform="translate(250.70648391248238, 18.976953408685972)" d="M0,3.0901936161855166A3.0901936161855166,3.0901936161855166 0 1,1 0,-3.0901936161855166A3.0901936161855166,3.0901936161855166 0 1,1 0,3.0901936161855166Z" fill="red" stroke="red"></path><path class="dot" transform="translate(280.90833645890586, 18.976953408685972)" d="M0,3.0901936161855166A3.0901936161855166,3.0901936161855166 0 1,1 0,-3.0901936161855166A3.0901936161855166,3.0901936161855166 0 1,1 0,3.0901936161855166Z" fill="red" stroke="red"></path><path class="dot" transform="translate(9.091663541094075, 130.43478260869566)" d="M-2.7386127875258306,-2.7386127875258306L2.7386127875258306,-2.7386127875258306 2.7386127875258306,2.7386127875258306 -2.7386127875258306,2.7386127875258306Z" fill="blue" stroke="blue"></path><path class="dot" transform="translate(39.29351608751762, 130.43478260869566)" d="M-2.7386127875258306,-2.7386127875258306L2.7386127875258306,-2.7386127875258306 2.7386127875258306,2.7386127875258306 -2.7386127875258306,2.7386127875258306Z" fill="blue" stroke="blue"></path><path class="dot" transform="translate(69.49536863394115, 130.43478260869566)" d="M-2.7386127875258306,-2.7386127875258306L2.7386127875258306,-2.7386127875258306 2.7386127875258306,2.7386127875258306 -2.7386127875258306,2.7386127875258306Z" fill="blue" stroke="blue"></path><path class="dot" transform="translate(99.69722118036468, 130.43478260869566)" d="M-2.7386127875258306,-2.7386127875258306L2.7386127875258306,-2.7386127875258306 2.7386127875258306,2.7386127875258306 -2.7386127875258306,2.7386127875258306Z" fill="blue" stroke="blue"></path><path class="dot" transform="translate(129.89907372678823, 130.43478260869566)" d="M-2.7386127875258306,-2.7386127875258306L2.7386127875258306,-2.7386127875258306 2.7386127875258306,2.7386127875258306 -2.7386127875258306,2.7386127875258306Z" fill="blue" stroke="blue"></path><path class="dot" transform="translate(160.10092627321177, 130.43478260869566)" d="M-2.7386127875258306,-2.7386127875258306L2.7386127875258306,-2.7386127875258306 2.7386127875258306,2.7386127875258306 -2.7386127875258306,2.7386127875258306Z" fill="blue" stroke="blue"></path><path class="dot" transform="translate(190.30277881963528, 130.43478260869566)" d="M-2.7386127875258306,-2.7386127875258306L2.7386127875258306,-2.7386127875258306 2.7386127875258306,2.7386127875258306 -2.7386127875258306,2.7386127875258306Z" fill="blue" stroke="blue"></path><path class="dot" transform="translate(220.50463136605885, 130.43478260869566)" d="M-2.7386127875258306,-2.7386127875258306L2.7386127875258306,-2.7386127875258306 2.7386127875258306,2.7386127875258306 -2.7386127875258306,2.7386127875258306Z" fill="blue" stroke="blue"></path><path class="dot" transform="translate(250.70648391248238, 130.43478260869566)" d="M-2.7386127875258306,-2.7386127875258306L2.7386127875258306,-2.7386127875258306 2.7386127875258306,2.7386127875258306 -2.7386127875258306,2.7386127875258306Z" fill="blue" stroke="blue"></path><path class="dot" transform="translate(280.90833645890586, 130.43478260869566)" d="M-2.7386127875258306,-2.7386127875258306L2.7386127875258306,-2.7386127875258306 2.7386127875258306,2.7386127875258306 -2.7386127875258306,2.7386127875258306Z" fill="blue" stroke="blue"></path><g><text x="100" y="20" fill="blue" style="font-size:14px" alignment-baseline="middle">CTree</text><path d="M75 20 L95 20" stroke="blue"></path><path transform="translate(85, 20)" fill="blue" d="M-2.7386127875258306,-2.7386127875258306L2.7386127875258306,-2.7386127875258306 2.7386127875258306,2.7386127875258306 -2.7386127875258306,2.7386127875258306Z"></path><text x="100" y="40" fill="red" style="font-size:14px" alignment-baseline="middle">Crack</text><path d="M75 40 L95 40" stroke="red"></path><path transform="translate(85, 40)" fill="red" d="M0,3.0901936161855166A3.0901936161855166,3.0901936161855166 0 1,1 0,-3.0901936161855166A3.0901936161855166,3.0901936161855166 0 1,1 0,3.0901936161855166Z"></path><text x="100" y="60" fill="orange" style="font-size:14px" alignment-baseline="middle">COMB</text><path d="M75 60 L95 60" stroke="orange"></path><path transform="translate(85, 60)" fill="orange" d="M0,-5.0971327345413675L2.9428309563827115,0 0,5.0971327345413675 -2.9428309563827115,0Z"></path></g><g class="x axis" transform="translate(0,150)" style="shape-rendering: crispedges; font-size: 14px;"><g class="tick" transform="translate(9.091663541094075,0)" style="opacity: 1;"><line y2="-5" x2="0"></line><text y="7" x="0" dy=".71em" style="text-anchor: middle;">10<tspan dy="-.5em" style="shape-rendering: crispedges; font-size: 11px;">0</tspan></text></g><g class="tick" transform="translate(39.29351608751762,0)" style="opacity: 1;"><line y2="-5" x2="0"></line><text y="7" x="0" dy=".71em" style="text-anchor: middle;">10<tspan dy="-.5em" style="shape-rendering: crispedges; font-size: 11px;">1</tspan></text></g><g class="tick" transform="translate(69.49536863394115,0)" style="opacity: 1;"><line y2="-5" x2="0"></line><text y="7" x="0" dy=".71em" style="text-anchor: middle;">10<tspan dy="-.5em" style="shape-rendering: crispedges; font-size: 11px;">2</tspan></text></g><g class="tick" transform="translate(99.69722118036468,0)" style="opacity: 1;"><line y2="-5" x2="0"></line><text y="7" x="0" dy=".71em" style="text-anchor: middle;">10<tspan dy="-.5em" style="shape-rendering: crispedges; font-size: 11px;">3</tspan></text></g><g class="tick" transform="translate(129.89907372678823,0)" style="opacity: 1;"><line y2="-5" x2="0"></line><text y="7" x="0" dy=".71em" style="text-anchor: middle;">10<tspan dy="-.5em" style="shape-rendering: crispedges; font-size: 11px;">4</tspan></text></g><g class="tick" transform="translate(160.10092627321177,0)" style="opacity: 1;"><line y2="-5" x2="0"></line><text y="7" x="0" dy=".71em" style="text-anchor: middle;">10<tspan dy="-.5em" style="shape-rendering: crispedges; font-size: 11px;">5</tspan></text></g><g class="tick" transform="translate(190.30277881963528,0)" style="opacity: 1;"><line y2="-5" x2="0"></line><text y="7" x="0" dy=".71em" style="text-anchor: middle;">10<tspan dy="-.5em" style="shape-rendering: crispedges; font-size: 11px;">6</tspan></text></g><g class="tick" transform="translate(220.50463136605885,0)" style="opacity: 1;"><line y2="-5" x2="0"></line><text y="7" x="0" dy=".71em" style="text-anchor: middle;">10<tspan dy="-.5em" style="shape-rendering: crispedges; font-size: 11px;">7</tspan></text></g><g class="tick" transform="translate(250.70648391248238,0)" style="opacity: 1;"><line y2="-5" x2="0"></line><text y="7" x="0" dy=".71em" style="text-anchor: middle;">10<tspan dy="-.5em" style="shape-rendering: crispedges; font-size: 11px;">8</tspan></text></g><g class="tick" transform="translate(280.90833645890586,0)" style="opacity: 1;"><line y2="-5" x2="0"></line><text y="7" x="0" dy=".71em" style="text-anchor: middle;">10<tspan dy="-.5em" style="shape-rendering: crispedges; font-size: 11px;">9</tspan></text></g><path class="domain" d="M0,-5V0H290V-5"></path><text transform="translate(145, 0)" y="40" style="text-anchor: middle; font-size: 14px;">Query Sequence</text></g><g class="x axis top" transform="translate(0,0)" style="shape-rendering: crispedges; font-size: 14px;"><g class="tick" transform="translate(9.091663541094075,0)" style="opacity: 1;"><line y2="5" x2="0"></line><text y="-3" x="0" dy="0em" style="text-anchor: middle;"></text></g><g class="tick" transform="translate(39.29351608751762,0)" style="opacity: 1;"><line y2="5" x2="0"></line><text y="-3" x="0" dy="0em" style="text-anchor: middle;"></text></g><g class="tick" transform="translate(69.49536863394115,0)" style="opacity: 1;"><line y2="5" x2="0"></line><text y="-3" x="0" dy="0em" style="text-anchor: middle;"></text></g><g class="tick" transform="translate(99.69722118036468,0)" style="opacity: 1;"><line y2="5" x2="0"></line><text y="-3" x="0" dy="0em" style="text-anchor: middle;"></text></g><g class="tick" transform="translate(129.89907372678823,0)" style="opacity: 1;"><line y2="5" x2="0"></line><text y="-3" x="0" dy="0em" style="text-anchor: middle;"></text></g><g class="tick" transform="translate(160.10092627321177,0)" style="opacity: 1;"><line y2="5" x2="0"></line><text y="-3" x="0" dy="0em" style="text-anchor: middle;"></text></g><g class="tick" transform="translate(190.30277881963528,0)" style="opacity: 1;"><line y2="5" x2="0"></line><text y="-3" x="0" dy="0em" style="text-anchor: middle;"></text></g><g class="tick" transform="translate(220.50463136605885,0)" style="opacity: 1;"><line y2="5" x2="0"></line><text y="-3" x="0" dy="0em" style="text-anchor: middle;"></text></g><g class="tick" transform="translate(250.70648391248238,0)" style="opacity: 1;"><line y2="5" x2="0"></line><text y="-3" x="0" dy="0em" style="text-anchor: middle;"></text></g><g class="tick" transform="translate(280.90833645890586,0)" style="opacity: 1;"><line y2="5" x2="0"></line><text y="-3" x="0" dy="0em" style="text-anchor: middle;"></text></g><path class="domain" d="M0,5V0H290V5"></path></g><g class="y axis" style="shape-rendering: crispedges; font-size: 14px;"><g class="tick" transform="translate(0,152.17391304347825)" style="opacity: 1;"><line x2="5" y2="0"></line><text x="-5" y="0" dy=".32em" style="text-anchor: end;">0</text></g><g class="tick" transform="translate(0,130.43478260869566)" style="opacity: 1;"><line x2="5" y2="0"></line><text x="-5" y="0" dy=".32em" style="text-anchor: end;">1</text></g><g class="tick" transform="translate(0,108.69565217391305)" style="opacity: 1;"><line x2="5" y2="0"></line><text x="-5" y="0" dy=".32em" style="text-anchor: end;">2</text></g><g class="tick" transform="translate(0,86.95652173913044)" style="opacity: 1;"><line x2="5" y2="0"></line><text x="-5" y="0" dy=".32em" style="text-anchor: end;">3</text></g><g class="tick" transform="translate(0,65.21739130434783)" style="opacity: 1;"><line x2="5" y2="0"></line><text x="-5" y="0" dy=".32em" style="text-anchor: end;">4</text></g><g class="tick" transform="translate(0,43.478260869565204)" style="opacity: 1;"><line x2="5" y2="0"></line><text x="-5" y="0" dy=".32em" style="text-anchor: end;">5</text></g><g class="tick" transform="translate(0,21.739130434782595)" style="opacity: 1;"><line x2="5" y2="0"></line><text x="-5" y="0" dy=".32em" style="text-anchor: end;">6</text></g><g class="tick" transform="translate(0,0)" style="opacity: 1;"><line x2="5" y2="0"></line><text x="-5" y="0" dy=".32em" style="text-anchor: end;">7</text></g><path class="domain" d="M5,0H0V150H5"></path><text transform="rotate(-90) translate(-75, 0)" y="-40" style="text-anchor: middle; font-size: 14px;">LFHV: Ratio to CTree</text></g><g class="y axis right" transform="translate(290,0)" style="shape-rendering: crispedges; font-size: 14px;"><g class="tick" transform="translate(0,152.17391304347825)" style="opacity: 1;"><line x2="-5" y2="0"></line><text x="3" y="0" dy=".32em" style="text-anchor: start;"></text></g><g class="tick" transform="translate(0,130.43478260869566)" style="opacity: 1;"><line x2="-5" y2="0"></line><text x="3" y="0" dy=".32em" style="text-anchor: start;"></text></g><g class="tick" transform="translate(0,108.69565217391305)" style="opacity: 1;"><line x2="-5" y2="0"></line><text x="3" y="0" dy=".32em" style="text-anchor: start;"></text></g><g class="tick" transform="translate(0,86.95652173913044)" style="opacity: 1;"><line x2="-5" y2="0"></line><text x="3" y="0" dy=".32em" style="text-anchor: start;"></text></g><g class="tick" transform="translate(0,65.21739130434783)" style="opacity: 1;"><line x2="-5" y2="0"></line><text x="3" y="0" dy=".32em" style="text-anchor: start;"></text></g><g class="tick" transform="translate(0,43.478260869565204)" style="opacity: 1;"><line x2="-5" y2="0"></line><text x="3" y="0" dy=".32em" style="text-anchor: start;"></text></g><g class="tick" transform="translate(0,21.739130434782595)" style="opacity: 1;"><line x2="-5" y2="0"></line><text x="3" y="0" dy=".32em" style="text-anchor: start;"></text></g><g class="tick" transform="translate(0,0)" style="opacity: 1;"><line x2="-5" y2="0"></line><text x="3" y="0" dy=".32em" style="text-anchor: start;"></text></g><path class="domain" d="M-5,0H0V150H-5"></path></g><g class="lines"><path class="line" d="M9.091663541094075,126.57323447952322L39.29351608751762,137.66914783525215L69.49536863394115,140.2106196062129L99.69722118036468,140.28257754327004L129.89907372678823,140.05484048006684L160.10092627321177,140.3264892751141L190.30277881963528,136.59353171196972L220.50463136605885,111.11550548332049L250.70648391248238,88.47997634731067L280.90833645890586,88.47997634731067" style="stroke: #ffa500;"></path></g><g class="lines"><path class="line" d="M9.091663541094075,139.45705152976439L39.29351608751762,138.2085216276247L69.49536863394115,136.32471911054782L99.69722118036468,135.00440188855728L129.89907372678823,136.86737405685756L160.10092627321177,138.1892418241554L190.30277881963528,133.85661406876767L220.50463136605885,91.35179412660348L250.70648391248238,18.976953408685972L280.90833645890586,18.976953408685972" style="stroke: #ff0000;"></path></g><g class="lines"><path class="line" d="M9.091663541094075,130.43478260869566L39.29351608751762,130.43478260869566L69.49536863394115,130.43478260869566L99.69722118036468,130.43478260869566L129.89907372678823,130.43478260869566L160.10092627321177,130.43478260869566L190.30277881963528,130.43478260869566L220.50463136605885,130.43478260869566L250.70648391248238,130.43478260869566L280.90833645890586,130.43478260869566" style="stroke: #0000ff;"></path></g></g></svg>